<?xml version="1.0" standalone="no"?><!DOCTYPE svg PUBLIC "-//W3C//DTD SVG 1.1//EN" "http://www.w3.org/Graphics/SVG/1.1/DTD/svg11.dtd"><svg t="1589625472988" class="icon" viewBox="0 0 1024 1024" version="1.1" xmlns="http://www.w3.org/2000/svg" p-id="1644" xmlns:xlink="http://www.w3.org/1999/xlink" width="48" height="48"><defs><style type="text/css"></style></defs><path d="M766.4 457.3c-7.5 0-17.6 0-25.1 2.5l-42.7-108.1 7.5-42.7h50.3c12.6 0 25.1-5 25.1-17.6 0-12.6-10.1-25.1-25.1-25.1h-72.9c-12.6 0-22.6 7.5-22.6 20.1l-7.5 52.8L407 369.3 381.9 309H417c12.6 0 27.6-5 27.6-17.6 0-12.6-10.1-25.1-25.1-25.1H324c-12.6 0-25.1 10.1-25.1 25.1 0 12.6 12.6 17.6 27.6 17.6h2.5l37.7 80.4-50.3 80.4c-17.6-7.5-37.7-12.6-57.8-12.6-82.9 0-148.3 67.9-148.3 148.3 0 82.9 67.9 148.3 148.3 148.3 72.9 0 135.7-52.8 148.3-123.2h85.5v-5c2.5 0 7.5 0 10.1-2.5 2.5-2.5 5-2.5 7.5-5L673.4 397l27.6 75.4c-52.8 22.6-88 75.4-88 135.7 0 82.9 67.9 148.3 148.3 148.3 82.9 0 148.3-67.9 148.3-148.3 5.1-83-62.7-150.8-143.2-150.8zM407 590.5c-5-40.2-25.1-72.9-52.8-98l37.7-60.3 75.4 158.3H407z m90.5-25.1l-67.9-155.8L633.2 387 497.5 565.4z m42.7 87.9h-47.8c-12.6 0-25.1 7.5-25.1 22.6 0 12.6 20.1 17.6 32.7 17.6h40.2c12.6 0 25.1-2.5 25.1-17.6 0-15-10-22.6-25.1-22.6z m0 0" p-id="1645" fill="#d81e06"></path></svg>